<svg xmlns="http://www.w3.org/2000/svg" viewBox="0 0 600 760"><rect width="600" height="760" fill="#f9e9f1"/><ellipse cx="300" cy="720" rx="185" ry="22" fill="#e8c9d8"/><path d="M270 105c-20 34-25 67-24 105l-38 54c-18 25-29 52-33 82l-25 290h300l-25-290c-4-30-15-57-33-82l-38-54c1-38-4-71-24-105z" fill="#a96a4f"/><path d="M270 105c8 18 17 27 30 27s22-9 30-27" fill="none" stroke="#87513d" stroke-width="7"/><path d="M220 265l-37 54m197-54l37 54" stroke="#87513d" stroke-width="8" stroke-linecap="round"/><path d="M205 510h190" stroke="#87513d" stroke-width="4" opacity=".5"/><path d="M195 635h210" stroke="#87513d" stroke-width="4" opacity=".5"/><text x="300" y="350" text-anchor="middle" fill="#55715e" font-size="40" font-family="Georgia">JARDINS</text><path d="M300 365c-22-30-50-22-55 5 28-8 45 7 55 30 10-23 27-38 55-30-5-27-33-35-55-5z" fill="#55715e" opacity=".75"/></svg>